<svg width="15" height="16" viewBox="0 0 15 16" fill="none" xmlns="http://www.w3.org/2000/svg">
<g clip-path="url(#clip0)">
<path d="M3.04732 15.0317H2.10982C1.92334 15.0317 1.7445 14.9576 1.61263 14.8257C1.48077 14.6939 1.40669 14.515 1.40669 14.3286V10.1098C1.40669 9.92332 1.48077 9.74448 1.61263 9.61262C1.7445 9.48076 1.92334 9.40668 2.10982 9.40668H3.04732C3.2338 9.40668 3.41264 9.48076 3.5445 9.61262C3.67636 9.74448 3.75044 9.92332 3.75044 10.1098V14.3286C3.75044 14.515 3.67636 14.6939 3.5445 14.8257C3.41264 14.9576 3.2338 15.0317 3.04732 15.0317Z" fill="#4FD1C5"/>
<path d="M9.60985 15.0309H8.67235C8.48587 15.0309 8.30703 14.9568 8.17517 14.8249C8.0433 14.6931 7.96922 14.5142 7.96922 14.3278V7.29651C7.96922 7.11003 8.0433 6.93119 8.17517 6.79932C8.30703 6.66746 8.48587 6.59338 8.67235 6.59338H9.60985C9.79633 6.59338 9.97517 6.66746 10.107 6.79932C10.2389 6.93119 10.313 7.11003 10.313 7.29651V14.3278C10.313 14.5142 10.2389 14.6931 10.107 14.8249C9.97517 14.9568 9.79633 15.0309 9.60985 15.0309Z" fill="#4FD1C5"/>
<path d="M12.8911 15.0312H11.9536C11.7671 15.0312 11.5883 14.9572 11.4564 14.8253C11.3245 14.6934 11.2505 14.5146 11.2505 14.3281V4.01562C11.2505 3.82914 11.3245 3.6503 11.4564 3.51844C11.5883 3.38658 11.7671 3.3125 11.9536 3.3125H12.8911C13.0776 3.3125 13.2564 3.38658 13.3883 3.51844C13.5201 3.6503 13.5942 3.82914 13.5942 4.01562V14.3281C13.5942 14.5146 13.5201 14.6934 13.3883 14.8253C13.2564 14.9572 13.0776 15.0312 12.8911 15.0312Z" fill="#4FD1C5"/>
<path d="M6.32858 15.0311H5.39108C5.2046 15.0311 5.02576 14.957 4.8939 14.8251C4.76204 14.6933 4.68796 14.5144 4.68796 14.3279V1.67169C4.68796 1.48521 4.76204 1.30637 4.8939 1.17451C5.02576 1.04265 5.2046 0.968567 5.39108 0.968567H6.32858C6.51506 0.968567 6.69391 1.04265 6.82577 1.17451C6.95763 1.30637 7.03171 1.48521 7.03171 1.67169V14.3279C7.03171 14.5144 6.95763 14.6933 6.82577 14.8251C6.69391 14.957 6.51506 15.0311 6.32858 15.0311Z" fill="#4FD1C5"/>
</g>
<defs>
<clipPath id="clip0">
<rect width="15" height="15" fill="white" transform="translate(0.000476837 0.500061)"/>
</clipPath>
</defs>
</svg>
