<svg width="10" height="10" fill="none" xmlns="http://www.w3.org/2000/svg"><path d="M4.186 3.34c0 .279 0 .55.088.803C3.348 5.23.904 8.103.676 8.322a.433.433 0 00-.144.322c0 .183.111.359.206.458.142.148.748.709.86.601.33-.322.397-.408.532-.541.204-.2-.021-.608.05-.774.07-.165.146-.197.268-.223.123-.026.34.062.51.064.178.003.274-.073.408-.197.107-.1.184-.192.186-.335.005-.194-.275-.45-.066-.654.208-.204.509.134.73.108.222-.026.49-.333.518-.464.028-.131-.251-.469-.208-.66.015-.064.146-.215.245-.236.098-.022.537.148.636.127.12-.026.26-.153.373-.224a2.42 2.42 0 001.025.202c1.472 0 2.664-1.147 2.664-2.56C9.47 1.921 8.277.778 6.805.778c-1.471 0-2.619 1.147-2.619 2.56zm3.908-.498a.687.687 0 11-1.375 0 .687.687 0 011.375 0z" fill="#2D3748"/></svg>