<svg width="23" height="23" fill="none" xmlns="http://www.w3.org/2000/svg">
    <path d="M14.618 3.338c-.855-.924-2.05-1.432-3.368-1.432-1.325 0-2.524.505-3.375 1.423-.86.928-1.28 2.188-1.181 3.55.195 2.686 2.239 4.87 4.556 4.87s4.358-2.184 4.556-4.87c.1-1.349-.322-2.607-1.188-3.541zM18.984 21.592H3.515a1.363 1.363 0 01-1.063-.489 1.552 1.552 0 01-.316-1.279c.371-2.058 1.529-3.786 3.348-5 1.616-1.076 3.664-1.67 5.766-1.67s4.15.594 5.765 1.67c1.82 1.214 2.977 2.942 3.348 5 .085.471-.03.937-.315 1.279a1.362 1.362 0 01-1.064.49z" fill="#4FD1C5"/>
</svg>